<?xml version="1.0" encoding="UTF-8" standalone="no"?><svg width="35" height="35" viewBox="0 0 35 35" fill="none" xmlns="http://www.w3.org/2000/svg">
<path d="M25.0491 12.6342C27.2998 14.2489 30.0571 15.1989 33.035 15.1989V9.44799C32.4714 9.44811 31.9093 9.38914 31.3579 9.2719V13.7987C28.3802 13.7987 25.6233 12.8487 23.372 11.2341V22.97C23.372 28.8409 18.6296 33.5999 12.78 33.5999C10.5973 33.5999 8.56862 32.9377 6.88339 31.802C8.80681 33.7756 11.4892 35 14.4567 35C20.3067 35 25.0493 30.241 25.0493 24.3699V12.6342H25.0491V12.6342ZM27.118 6.8323C25.9677 5.57118 25.2125 3.94142 25.0491 2.13965V1.39996H23.4598C23.8599 3.69001 25.2244 5.6465 27.118 6.8323ZM10.5833 27.2968C9.94066 26.4512 9.59337 25.4167 9.59493 24.3531C9.59493 21.668 11.7641 19.4908 14.4402 19.4908C14.9389 19.4907 15.4347 19.5673 15.91 19.7187V13.8393C15.3545 13.7629 14.7939 13.7304 14.2336 13.7423V18.3186C13.7579 18.1672 13.262 18.0904 12.7631 18.0908C10.087 18.0908 7.91795 20.2677 7.91795 22.9532C7.91795 24.8521 9.00216 26.496 10.5833 27.2968Z" fill="#FF004F"/>
<path d="M23.3719 11.234C25.6232 12.8485 28.3801 13.7986 31.3578 13.7986V9.27178C29.6957 8.91647 28.2242 8.04477 27.1179 6.8323C25.2242 5.64638 23.8598 3.68989 23.4597 1.39996H19.2851V24.3697C19.2757 27.0475 17.1102 29.2157 14.4399 29.2157C12.8662 29.2157 11.4683 28.4629 10.5829 27.2968C9.00184 26.496 7.91763 24.8519 7.91763 22.9533C7.91763 20.2681 10.0866 18.091 12.7628 18.091C13.2755 18.091 13.7697 18.1711 14.2333 18.3187V13.7425C8.48635 13.8616 3.86444 18.5741 3.86444 24.3698C3.86444 27.2629 5.0154 29.8857 6.88343 31.8021C8.56866 32.9377 10.5973 33.6 12.78 33.6C18.6298 33.6 23.372 28.8408 23.372 22.97V11.234H23.3719Z" fill="black"/>
<path d="M31.3579 9.27179V8.04779C29.859 8.05007 28.3896 7.62882 27.1179 6.8322C28.2437 8.06905 29.726 8.92189 31.3579 9.27179ZM23.4598 1.39998C23.4216 1.18112 23.3923 0.960824 23.372 0.739687V0H17.6079V22.9699C17.5987 25.6474 15.4334 27.8156 12.7628 27.8156C11.9787 27.8156 11.2385 27.6288 10.5829 27.2969C11.4683 28.4629 12.8663 29.2156 14.4399 29.2156C17.11 29.2156 19.2758 27.0476 19.2852 24.3698V1.39998H23.4598ZM14.2335 13.7425V12.4394C13.7519 12.3734 13.2663 12.3402 12.7801 12.3404C6.92988 12.3403 2.1875 17.0995 2.1875 22.9699C2.1875 26.6504 4.05134 29.8939 6.88358 31.8019C5.01556 29.8856 3.86459 27.2627 3.86459 24.3697C3.86459 18.5741 8.48638 13.8616 14.2335 13.7425Z" fill="#00F2EA"/>
</svg>
